<svg width="29" height="29" viewBox="0 0 29 29" fill="none" xmlns="http://www.w3.org/2000/svg">
<path d="M15.5666 5.65886L15.6793 5.76455L24.1035 14.0405L23.2 14.9595L22.04 13.8201L22.0406 22.5555C22.0406 23.2348 21.5148 23.7916 20.8478 23.8406L20.7518 23.8444H7.86286C7.18362 23.8444 6.62682 23.3186 6.5772 22.6516L6.57398 22.5555L6.57333 13.8207L5.41462 14.9595L4.51111 14.0405L12.9263 5.77293C13.6435 5.04084 14.8003 5.00024 15.5666 5.65886ZM13.9 6.6281L13.8382 6.68417L7.86222 12.5544L7.86286 22.5555L11.0844 22.5549L11.0851 16.1111C11.0851 15.4319 11.611 14.8751 12.278 14.8254L12.374 14.8222H16.2406C16.9199 14.8222 17.4767 15.3481 17.5263 16.0151L17.5295 16.1111L17.5289 22.5549L20.7518 22.5555L20.7511 12.5538L14.7584 6.66613C14.5238 6.43606 14.1578 6.42188 13.9 6.6281ZM16.2406 16.1111H12.374L12.3733 22.5549H16.24L16.2406 16.1111Z" fill="#4182F9"/>
</svg>
