<svg width="29" height="29" viewBox="0 0 29 29" fill="none" xmlns="http://www.w3.org/2000/svg">
<path d="M21.9111 8.70001H16.7555V6.76667C16.7549 6.42512 16.6189 6.09709 16.3772 5.85543C16.1362 5.61441 15.8082 5.47843 15.4666 5.47778H6.44441C6.10285 5.47843 5.77483 5.61376 5.53316 5.85543C5.2915 6.09709 5.15616 6.42512 5.15552 6.76667V22.2333C5.15616 22.5749 5.29214 22.9029 5.53316 23.1439C5.77483 23.3856 6.10285 23.5216 6.44441 23.5222H21.9111C22.2526 23.5216 22.58 23.3856 22.8217 23.1439C23.0633 22.9023 23.1993 22.5749 23.2 22.2333V9.98889C23.1993 9.64734 23.0633 9.31932 22.8217 9.07765C22.5807 8.83663 22.2526 8.70065 21.9111 8.70001ZM12.2444 22.2333H9.66663V19.0111H12.2444V22.2333ZM15.4666 22.2333H13.5333V19.0111C13.5326 18.6696 13.3967 18.3415 13.155 18.1005C12.914 17.8588 12.586 17.7229 12.2444 17.7222H9.66663C9.32507 17.7229 8.99705 17.8588 8.75538 18.1005C8.51436 18.3415 8.37838 18.6696 8.37774 19.0111V22.2333H6.44441L6.44376 6.76667H15.4666V22.2333ZM21.9111 22.2333H16.7555V9.98889H21.9111V22.2333ZM19.9777 14.5C19.9777 14.6276 19.9397 14.752 19.8688 14.8583C19.7986 14.964 19.6974 15.0465 19.5801 15.0955C19.4622 15.1444 19.3327 15.1567 19.2076 15.1322C19.0826 15.1071 18.9679 15.0458 18.8777 14.9556C18.7874 14.8654 18.7262 14.7507 18.7011 14.6257C18.6766 14.5006 18.6889 14.3711 18.7378 14.2532C18.7868 14.1359 18.8693 14.0347 18.975 13.9645C19.0813 13.8936 19.2057 13.8556 19.3333 13.8556C19.5041 13.8556 19.6684 13.9232 19.7889 14.0444C19.9101 14.1649 19.9777 14.3292 19.9777 14.5ZM18.6889 11.9222C18.6889 11.7946 18.7269 11.6702 18.7978 11.5639C18.868 11.4582 18.9692 11.3757 19.0865 11.3268C19.2044 11.2778 19.3339 11.2655 19.459 11.29C19.584 11.3152 19.6987 11.3764 19.7889 11.4666C19.8791 11.5568 19.9404 11.6715 19.9655 11.7966C19.99 11.9216 19.9777 12.0511 19.9288 12.169C19.8798 12.2863 19.7973 12.3875 19.6916 12.4578C19.5853 12.5286 19.4609 12.5667 19.3333 12.5667C19.1625 12.5667 18.9982 12.499 18.8777 12.3778C18.7565 12.2573 18.6889 12.093 18.6889 11.9222ZM13.5333 14.5C13.5333 14.6276 13.4953 14.752 13.4244 14.8583C13.3541 14.964 13.253 15.0465 13.1357 15.0955C13.0177 15.1444 12.8882 15.1567 12.7632 15.1322C12.6382 15.1071 12.5235 15.0458 12.4332 14.9556C12.343 14.8654 12.2818 14.7507 12.2567 14.6257C12.2322 14.5006 12.2444 14.3711 12.2934 14.2532C12.3424 14.1359 12.4249 14.0347 12.5305 13.9645C12.6369 13.8936 12.7613 13.8556 12.8889 13.8556C13.0596 13.8556 13.224 13.9232 13.3445 14.0444C13.4656 14.1649 13.5333 14.3292 13.5333 14.5ZM13.5333 11.9222C13.5333 12.0498 13.4953 12.1742 13.4244 12.2805C13.3541 12.3862 13.253 12.4687 13.1357 12.5177C13.0177 12.5667 12.8882 12.5789 12.7632 12.5544C12.6382 12.5293 12.5235 12.4681 12.4332 12.3778C12.343 12.2876 12.2818 12.1729 12.2567 12.0479C12.2322 11.9229 12.2444 11.7933 12.2934 11.6754C12.3424 11.5581 12.4249 11.4569 12.5305 11.3867C12.6369 11.3158 12.7613 11.2778 12.8889 11.2778C13.0596 11.2778 13.224 11.3454 13.3445 11.4666C13.4656 11.5871 13.5333 11.7514 13.5333 11.9222ZM13.5333 9.34445C13.5333 9.47205 13.4953 9.59643 13.4244 9.70276C13.3541 9.80845 13.253 9.89094 13.1357 9.93992C13.0177 9.98889 12.8882 10.0011 12.7632 9.97665C12.6382 9.95152 12.5235 9.89029 12.4332 9.80007C12.343 9.70985 12.2818 9.59514 12.2567 9.47012C12.2322 9.34509 12.2444 9.21556 12.2934 9.09763C12.3424 8.98034 12.4249 8.87916 12.5305 8.80892C12.6369 8.73803 12.7613 8.70001 12.8889 8.70001C13.0596 8.70001 13.224 8.76767 13.3445 8.88883C13.4656 9.00934 13.5333 9.17367 13.5333 9.34445ZM9.66663 14.5C9.66663 14.6276 9.62861 14.752 9.55772 14.8583C9.48747 14.964 9.3863 15.0465 9.26901 15.0955C9.15107 15.1444 9.02154 15.1567 8.89652 15.1322C8.7715 15.1071 8.65678 15.0458 8.56656 14.9556C8.47634 14.8654 8.41512 14.7507 8.38998 14.6257C8.3655 14.5006 8.37774 14.3711 8.42672 14.2532C8.4757 14.1359 8.55818 14.0347 8.66387 13.9645C8.77021 13.8936 8.89458 13.8556 9.02218 13.8556C9.19296 13.8556 9.3573 13.9232 9.47781 14.0444C9.59896 14.1649 9.66663 14.3292 9.66663 14.5ZM9.66663 11.9222C9.66663 12.0498 9.62861 12.1742 9.55772 12.2805C9.48747 12.3862 9.3863 12.4687 9.26901 12.5177C9.15107 12.5667 9.02154 12.5789 8.89652 12.5544C8.7715 12.5293 8.65678 12.4681 8.56656 12.3778C8.47634 12.2876 8.41512 12.1729 8.38998 12.0479C8.3655 11.9229 8.37774 11.7933 8.42672 11.6754C8.4757 11.5581 8.55818 11.4569 8.66387 11.3867C8.77021 11.3158 8.89458 11.2778 9.02218 11.2778C9.19296 11.2778 9.3573 11.3454 9.47781 11.4666C9.59896 11.5871 9.66663 11.7514 9.66663 11.9222ZM9.66663 9.34445C9.66663 9.47205 9.62861 9.59643 9.55772 9.70276C9.48747 9.80845 9.3863 9.89094 9.26901 9.93992C9.15107 9.98889 9.02154 10.0011 8.89652 9.97665C8.7715 9.95152 8.65678 9.89029 8.56656 9.80007C8.47634 9.70985 8.41512 9.59514 8.38998 9.47012C8.3655 9.34509 8.37774 9.21556 8.42672 9.09763C8.4757 8.98034 8.55818 8.87916 8.66387 8.80892C8.77021 8.73803 8.89458 8.70001 9.02218 8.70001C9.19296 8.70001 9.3573 8.76767 9.47781 8.88883C9.59896 9.00934 9.66663 9.17367 9.66663 9.34445Z" fill="#4182F9"/>
</svg>
